<svg width="48" height="64" viewBox="0 0 48 64" fill="none" xmlns="http://www.w3.org/2000/svg">
<rect width="48" height="48" rx="8" fill="#A78BFA"/>
<path d="M14 34C13.3125 34 12.724 33.7552 12.2344 33.2656C11.7448 32.776 11.5 32.1875 11.5 31.5V16.5C11.5 15.8125 11.7448 15.224 12.2344 14.7344C12.724 14.2448 13.3125 14 14 14H34C34.6875 14 35.276 14.2448 35.7656 14.7344C36.2552 15.224 36.5 15.8125 36.5 16.5V31.5C36.5 32.1875 36.2552 32.776 35.7656 33.2656C35.276 33.7552 34.6875 34 34 34H14ZM14 31.5H34V19H14V31.5ZM18.375 30.25L16.625 28.5L19.8438 25.25L16.5938 22L18.375 20.25L23.375 25.25L18.375 30.25ZM24 30.25V27.75H31.5V30.25H24Z" fill="#0A0012"/>
</svg>
